<svg width="56" height="56" viewBox="0 0 56 56" fill="none" xmlns="http://www.w3.org/2000/svg">
<path d="M11.7815 13.5883V12.9983H3.38849L6.18849 4.61128C6.34824 4.13277 6.6547 3.71677 7.06436 3.42236C7.47401 3.12796 7.96602 2.97013 8.47049 2.97128H13.4185C13.5715 2.61728 13.7365 2.26328 13.9185 1.91528L49.5295 2.38128L54.2475 13.5873L11.7815 13.5883Z" fill="#E9EBEF"/>
<path d="M54.2455 26.7256C55.0041 25.8651 55.4233 24.7577 55.4245 23.6106V13.5856L52.0335 3.7366C51.7308 2.82514 51.1482 2.03238 50.3689 1.47114C49.5895 0.909894 48.6529 0.608766 47.6925 0.610604H8.4665C7.46761 0.609096 6.49363 0.922266 5.6828 1.50566C4.87198 2.08905 4.26551 2.91302 3.9495 3.8606L0.5755 13.5856V23.6106C0.57726 24.7575 0.996743 25.8645 1.7555 26.7246C1.9668 26.9635 2.20128 27.1809 2.4555 27.3736C2.19899 27.568 1.96429 27.7897 1.7555 28.0346C0.996515 28.8949 0.577017 30.0023 0.5755 31.1496L0.5755 37.0496C0.576835 37.7992 0.756773 38.5377 1.10041 39.204C1.44404 39.8702 1.94147 40.4449 2.5515 40.8806C1.94161 41.3162 1.44426 41.8908 1.10063 42.5568C0.757008 43.2228 0.576994 43.9611 0.5755 44.7106L0.5755 50.6106C0.5755 51.8619 1.07257 53.0619 1.95737 53.9467C2.84217 54.8315 4.04221 55.3286 5.2935 55.3286H50.7065C51.9578 55.3286 53.1578 54.8315 54.0426 53.9467C54.9274 53.0619 55.4245 51.8619 55.4245 50.6106V44.7106C55.4236 43.9605 55.2439 43.2214 54.9003 42.5546C54.5566 41.8878 54.0589 41.3126 53.4485 40.8766C54.0589 40.4406 54.5566 39.8654 54.9003 39.1986C55.2439 38.5318 55.4236 37.7927 55.4245 37.0426V31.1426C55.4227 29.9957 55.0033 28.8887 54.2445 28.0286C54.0379 27.7905 53.8066 27.5749 53.5545 27.3856C53.806 27.1871 54.0372 26.964 54.2445 26.7196L54.2455 26.7256ZM6.1845 4.6106C6.34425 4.13209 6.65072 3.71609 7.06037 3.42168C7.47002 3.12728 7.96203 2.96945 8.4665 2.9706H47.5335C48.038 2.96945 48.53 3.12728 48.9396 3.42168C49.3493 3.71609 49.6558 4.13209 49.8155 4.6106L52.6155 12.9976H3.3885L6.1845 4.6106ZM2.9345 15.3546H53.0655V23.6106C53.0655 24.2362 52.817 24.8363 52.3746 25.2787C51.9322 25.7211 51.3321 25.9696 50.7065 25.9696H5.2935C4.66785 25.9696 4.06783 25.7211 3.62544 25.2787C3.18304 24.8363 2.9345 24.2362 2.9345 23.6106V15.3546ZM53.0655 50.6106C53.0655 51.2362 52.817 51.8363 52.3746 52.2787C51.9322 52.7211 51.3321 52.9696 50.7065 52.9696H5.2935C4.66785 52.9696 4.06783 52.7211 3.62544 52.2787C3.18304 51.8363 2.9345 51.2362 2.9345 50.6106V44.7106C2.9345 44.085 3.18304 43.4849 3.62544 43.0425C4.06783 42.6001 4.66785 42.3516 5.2935 42.3516H50.7065C51.3321 42.3516 51.9322 42.6001 52.3746 43.0425C52.817 43.4849 53.0655 44.085 53.0655 44.7106V50.6106ZM53.0655 37.0456C53.0663 37.3559 53.0059 37.6633 52.8877 37.9502C52.7695 38.2371 52.5958 38.4979 52.3767 38.7175C52.1576 38.9372 51.8972 39.1115 51.6106 39.2305C51.324 39.3494 51.0168 39.4106 50.7065 39.4106H5.2935C4.66785 39.4106 4.06783 39.1621 3.62544 38.7197C3.18304 38.2773 2.9345 37.6772 2.9345 37.0516V31.1516C2.9345 30.526 3.18304 29.9259 3.62544 29.4835C4.06783 29.0411 4.66785 28.7926 5.2935 28.7926H50.7065C51.3321 28.7926 51.9322 29.0411 52.3746 29.4835C52.817 29.9259 53.0655 30.526 53.0655 31.1516V37.0456Z" fill="#2533CC"/>
<path d="M36.5515 5.35254H9.42249C9.09664 5.35254 8.83249 5.61669 8.83249 5.94254C8.83249 6.26839 9.09664 6.53254 9.42249 6.53254H36.5515C36.8773 6.53254 37.1415 6.26839 37.1415 5.94254C37.1415 5.61669 36.8773 5.35254 36.5515 5.35254Z" fill="#2533CC"/>
<path d="M46.5775 5.35254H40.0905C39.7646 5.35254 39.5005 5.61669 39.5005 5.94254C39.5005 6.26839 39.7646 6.53254 40.0905 6.53254H46.5775C46.9033 6.53254 47.1675 6.26839 47.1675 5.94254C47.1675 5.61669 46.9033 5.35254 46.5775 5.35254Z" fill="#2533CC"/>
<path d="M34.1925 33.8325H19.4485C19.1226 33.8325 18.8585 34.0967 18.8585 34.4225C18.8585 34.7484 19.1226 35.0125 19.4485 35.0125H34.1925C34.5183 35.0125 34.7825 34.7484 34.7825 34.4225C34.7825 34.0967 34.5183 33.8325 34.1925 33.8325Z" fill="#2533CC"/>
<path d="M7.06232 32.3574V36.4854C7.06232 36.8113 7.32647 37.0754 7.65232 37.0754C7.97816 37.0754 8.24232 36.8113 8.24232 36.4854V32.3574C8.24232 32.0316 7.97816 31.7674 7.65232 31.7674C7.32647 31.7674 7.06232 32.0316 7.06232 32.3574Z" fill="#2533CC"/>
<path d="M10.6014 32.3574V36.4854C10.6014 36.8113 10.8655 37.0754 11.1914 37.0754C11.5172 37.0754 11.7814 36.8113 11.7814 36.4854V32.3574C11.7814 32.0316 11.5172 31.7674 11.1914 31.7674C10.8655 31.7674 10.6014 32.0316 10.6014 32.3574Z" fill="#2533CC"/>
<path d="M14.1395 32.3574V36.4854C14.1395 36.8113 14.4036 37.0754 14.7295 37.0754C15.0553 37.0754 15.3195 36.8113 15.3195 36.4854V32.3574C15.3195 32.0316 15.0553 31.7674 14.7295 31.7674C14.4036 31.7674 14.1395 32.0316 14.1395 32.3574Z" fill="#2533CC"/>
<path d="M39.2053 35.8984C40.0193 35.8984 40.6793 35.2385 40.6793 34.4244C40.6793 33.6104 40.0193 32.9504 39.2053 32.9504C38.3912 32.9504 37.7313 33.6104 37.7313 34.4244C37.7313 35.2385 38.3912 35.8984 39.2053 35.8984Z" fill="#2533CC"/>
<path d="M43.3337 35.8984C44.1477 35.8984 44.8077 35.2385 44.8077 34.4244C44.8077 33.6104 44.1477 32.9504 43.3337 32.9504C42.5196 32.9504 41.8597 33.6104 41.8597 34.4244C41.8597 35.2385 42.5196 35.8984 43.3337 35.8984Z" fill="#2533CC"/>
<path d="M47.4626 35.8984C48.2767 35.8984 48.9366 35.2385 48.9366 34.4244C48.9366 33.6104 48.2767 32.9504 47.4626 32.9504C46.6485 32.9504 45.9886 33.6104 45.9886 34.4244C45.9886 35.2385 46.6485 35.8984 47.4626 35.8984Z" fill="#2533CC"/>
<path d="M34.1927 47.3958H19.4487C19.1229 47.3958 18.8587 47.6599 18.8587 47.9858C18.8587 48.3116 19.1229 48.5758 19.4487 48.5758H34.1927C34.5186 48.5758 34.7827 48.3116 34.7827 47.9858C34.7827 47.6599 34.5186 47.3958 34.1927 47.3958Z" fill="#2533CC"/>
<path d="M7.06232 45.9238V50.0518C7.06232 50.3777 7.32647 50.6418 7.65232 50.6418C7.97816 50.6418 8.24232 50.3777 8.24232 50.0518V45.9238C8.24232 45.598 7.97816 45.3338 7.65232 45.3338C7.32647 45.3338 7.06232 45.598 7.06232 45.9238Z" fill="#2533CC"/>
<path d="M10.6014 45.9238V50.0518C10.6014 50.3777 10.8655 50.6418 11.1914 50.6418C11.5172 50.6418 11.7814 50.3777 11.7814 50.0518V45.9238C11.7814 45.598 11.5172 45.3338 11.1914 45.3338C10.8655 45.3338 10.6014 45.598 10.6014 45.9238Z" fill="#2533CC"/>
<path d="M14.1395 45.9238V50.0518C14.1395 50.3777 14.4036 50.6418 14.7295 50.6418C15.0553 50.6418 15.3195 50.3777 15.3195 50.0518V45.9238C15.3195 45.598 15.0553 45.3338 14.7295 45.3338C14.4036 45.3338 14.1395 45.598 14.1395 45.9238Z" fill="#2533CC"/>
<path d="M39.2055 49.4607C40.0196 49.4607 40.6795 48.8008 40.6795 47.9867C40.6795 47.1726 40.0196 46.5127 39.2055 46.5127C38.3914 46.5127 37.7315 47.1726 37.7315 47.9867C37.7315 48.8008 38.3914 49.4607 39.2055 49.4607Z" fill="#2533CC"/>
<path d="M43.3335 49.4607C44.1476 49.4607 44.8075 48.8008 44.8075 47.9867C44.8075 47.1726 44.1476 46.5127 43.3335 46.5127C42.5194 46.5127 41.8595 47.1726 41.8595 47.9867C41.8595 48.8008 42.5194 49.4607 43.3335 49.4607Z" fill="#2533CC"/>
<path d="M47.4625 49.4607C48.2766 49.4607 48.9365 48.8008 48.9365 47.9867C48.9365 47.1726 48.2766 46.5127 47.4625 46.5127C46.6484 46.5127 45.9885 47.1726 45.9885 47.9867C45.9885 48.8008 46.6484 49.4607 47.4625 49.4607Z" fill="#2533CC"/>
<path d="M34.1925 20.2676H19.4485C19.1226 20.2676 18.8585 20.5317 18.8585 20.8576C18.8585 21.1834 19.1226 21.4476 19.4485 21.4476H34.1925C34.5183 21.4476 34.7825 21.1834 34.7825 20.8576C34.7825 20.5317 34.5183 20.2676 34.1925 20.2676Z" fill="#2533CC"/>
<path d="M7.06232 18.7949V22.9229C7.06232 23.2488 7.32647 23.5129 7.65232 23.5129C7.97816 23.5129 8.24232 23.2488 8.24232 22.9229V18.7949C8.24232 18.4691 7.97816 18.2049 7.65232 18.2049C7.32647 18.2049 7.06232 18.4691 7.06232 18.7949Z" fill="#2533CC"/>
<path d="M10.6014 18.7949V22.9229C10.6014 23.2488 10.8655 23.5129 11.1914 23.5129C11.5172 23.5129 11.7814 23.2488 11.7814 22.9229V18.7949C11.7814 18.4691 11.5172 18.2049 11.1914 18.2049C10.8655 18.2049 10.6014 18.4691 10.6014 18.7949Z" fill="#2533CC"/>
<path d="M14.1395 18.7949V22.9229C14.1395 23.2488 14.4036 23.5129 14.7295 23.5129C15.0553 23.5129 15.3195 23.2488 15.3195 22.9229V18.7949C15.3195 18.4691 15.0553 18.2049 14.7295 18.2049C14.4036 18.2049 14.1395 18.4691 14.1395 18.7949Z" fill="#2533CC"/>
<path d="M39.2053 22.332C40.0193 22.332 40.6793 21.6721 40.6793 20.858C40.6793 20.044 40.0193 19.384 39.2053 19.384C38.3912 19.384 37.7313 20.044 37.7313 20.858C37.7313 21.6721 38.3912 22.332 39.2053 22.332Z" fill="#2533CC"/>
<path d="M43.3337 22.332C44.1477 22.332 44.8077 21.6721 44.8077 20.858C44.8077 20.044 44.1477 19.384 43.3337 19.384C42.5196 19.384 41.8597 20.044 41.8597 20.858C41.8597 21.6721 42.5196 22.332 43.3337 22.332Z" fill="#2533CC"/>
<path d="M47.4626 22.332C48.2767 22.332 48.9366 21.6721 48.9366 20.858C48.9366 20.044 48.2767 19.384 47.4626 19.384C46.6485 19.384 45.9886 20.044 45.9886 20.858C45.9886 21.6721 46.6485 22.332 47.4626 22.332Z" fill="#2533CC"/>
</svg>
