<svg width="14" height="14" viewBox="0 0 14 14" fill="none" xmlns="http://www.w3.org/2000/svg">
<path d="M12.222 13.1806H11.343V2.92863C11.3429 2.83237 11.3238 2.73708 11.2868 2.6482C11.2499 2.55931 11.1958 2.47858 11.1276 2.41061C11.0595 2.34264 10.9786 2.28876 10.8896 2.25204C10.8006 2.21533 10.7053 2.1965 10.609 2.19663H0.359009V1.31763H10.609C11.0362 1.31789 11.4458 1.48771 11.7479 1.78977C12.0499 2.09183 12.2197 2.50144 12.22 2.92863L12.222 13.1806Z" fill="#A3ADC0"/>
<path d="M13.54 11.8642H3.288C3.07631 11.8641 2.86672 11.8223 2.67119 11.7411C2.47567 11.66 2.29803 11.5412 2.14844 11.3914C1.99884 11.2416 1.88021 11.0638 1.79933 10.8682C1.71844 10.6726 1.67687 10.4629 1.677 10.2512V0.0012207H2.556V10.2512C2.55627 10.4453 2.63347 10.6313 2.77069 10.7685C2.90791 10.9057 3.09395 10.983 3.288 10.9832H13.54V11.8642Z" fill="#A3ADC0"/>
<path d="M4.607 6.00523C4.3752 6.00523 4.1486 5.93649 3.95587 5.80771C3.76314 5.67893 3.61292 5.49588 3.52421 5.28173C3.43551 5.06757 3.4123 4.83192 3.45752 4.60458C3.50274 4.37723 3.61436 4.1684 3.77827 4.0045C3.94218 3.84059 4.15101 3.72897 4.37835 3.68374C4.6057 3.63852 4.84135 3.66173 5.0555 3.75044C5.26966 3.83914 5.4527 3.98936 5.58148 4.1821C5.71026 4.37483 5.779 4.60142 5.779 4.83322C5.77873 5.14398 5.65517 5.44193 5.43543 5.66166C5.2157 5.8814 4.91775 6.00496 4.607 6.00523ZM4.607 4.54023C4.54905 4.54023 4.4924 4.55741 4.44422 4.5896C4.39603 4.6218 4.35848 4.66756 4.3363 4.7211C4.31412 4.77464 4.30832 4.83355 4.31963 4.89039C4.33093 4.94722 4.35884 4.99943 4.39982 5.04041C4.44079 5.08138 4.493 5.10929 4.54984 5.1206C4.60667 5.1319 4.66559 5.1261 4.71912 5.10392C4.77266 5.08175 4.81842 5.04419 4.85062 4.99601C4.88281 4.94782 4.9 4.89117 4.9 4.83322C4.89973 4.75569 4.86875 4.68142 4.81383 4.62669C4.75891 4.57196 4.68453 4.54122 4.607 4.54122V4.54023Z" fill="#A3ADC0"/>
<path d="M2.42679 9.97895L1.80579 9.35795L3.29379 7.86995C3.48654 7.67741 3.74784 7.56926 4.02029 7.56926C4.29273 7.56926 4.55403 7.67741 4.74679 7.86995L5.48479 8.60795L8.27379 5.81895C8.46973 5.63253 8.72983 5.52856 9.00029 5.52856C9.27074 5.52856 9.53084 5.63253 9.72679 5.81895L12.0938 8.18595L11.4728 8.80695L9.10478 6.44495C9.09314 6.42783 9.07748 6.41382 9.05918 6.40413C9.04088 6.39445 9.02049 6.38939 8.99979 6.38939C8.97908 6.38939 8.95869 6.39445 8.94039 6.40413C8.92209 6.41382 8.90643 6.42783 8.89479 6.44495L5.79479 9.54495C5.754 9.58589 5.70553 9.61837 5.65216 9.64053C5.59879 9.6627 5.54157 9.67411 5.48379 9.67411C5.426 9.67411 5.36878 9.6627 5.31541 9.64053C5.26204 9.61837 5.21357 9.58589 5.17279 9.54495L4.12579 8.49195C4.09775 8.46446 4.06005 8.44907 4.02079 8.44907C3.98152 8.44907 3.94383 8.46446 3.91579 8.49195L2.42679 9.97895Z" fill="#A3ADC0"/>
</svg>
